# xmcd
# Track frame offsets:
# 150
# 8525
# 19615
# 29102
# 43015
# 54270
# 67580
# 77762
# 89872
# 112602
#
# Disc length: 1613 seconds
# Revision: 0
# Processed by: cddbd v1.4PL0 Copyright (c) Steve Scherf et al.
# Submitted via: VisiTrax 2.9.5.180 - For more info visit www.synapsa.com
#
DISCID=6c064b0a
DTITLE=Terry Smith - Look at my hands
DYEAR=2002
DGENRE=
TTITLE0=Look at my hands
TTITLE1=He's got the power
TTITLE2=Loed, I've been ready for years
TTITLE3=I'm tired
TTITLE4=Room at the top
TTITLE5=What about this thorn
TTITLE6=I see Jordan
TTITLE7=Far side banks of Jordan
TTITLE8=He shall not fail nor be discouraged
TTITLE9=He's the music in my soul
EXTD=
EXTT0=
EXTT1=
EXTT2=
EXTT3=
EXTT4=
EXTT5=
EXTT6=
EXTT7=
EXTT8=
EXTT9=
PLAYORDER=
